<svg width="48" height="48" viewBox="0 0 48 48" fill="none" xmlns="http://www.w3.org/2000/svg">
  <path d="M0 24C0 10.7452 10.7452 0 24 0C37.2548 0 48 10.7452 48 24C48 37.2548 37.2548 48 24 48C10.7452 48 0 37.2548 0 24Z" fill="currentColor" />
  <mask id="mask0" mask-type="alpha" maskUnits="userSpaceOnUse" x="0" y="0" width="48" height="48">
    <path fill-rule="evenodd" clip-rule="evenodd" d="M0 24C0 10.7452 10.7452 0 24 0C37.2548 0 48 10.7452 48 24C48 37.2548 37.2548 48 24 48C10.7452 48 0 37.2548 0 24Z" fill="white" />
  </mask>
  <g mask="url(#mask0)">
    <path fill-rule="evenodd" clip-rule="evenodd" d="M24.0014 11.2C20.5251 11.2 20.0888 11.2152 18.7235 11.2773C17.3608 11.3397 16.4306 11.5555 15.6168 11.872C14.7749 12.1989 14.0608 12.6363 13.3493 13.348C12.6373 14.0595 12.1999 14.7736 11.8719 15.6152C11.5546 16.4294 11.3386 17.3598 11.2773 18.7219C11.2162 20.0873 11.2002 20.5238 11.2002 24.0001C11.2002 27.4764 11.2157 27.9114 11.2775 29.2767C11.3402 30.6394 11.5559 31.5695 11.8722 32.3834C12.1994 33.2253 12.6367 33.9394 13.3485 34.6509C14.0597 35.3629 14.7738 35.8013 15.6152 36.1283C16.4296 36.4448 17.36 36.6605 18.7224 36.7229C20.0878 36.7851 20.5238 36.8003 23.9998 36.8003C27.4764 36.8003 27.9113 36.7851 29.2766 36.7229C30.6393 36.6605 31.5705 36.4448 32.3849 36.1283C33.2266 35.8013 33.9396 35.3629 34.6508 34.6509C35.3628 33.9394 35.8002 33.2253 36.1282 32.3837C36.4429 31.5695 36.6589 30.6391 36.7229 29.277C36.7842 27.9116 36.8002 27.4764 36.8002 24.0001C36.8002 20.5238 36.7842 20.0876 36.7229 18.7222C36.6589 17.3595 36.4429 16.4294 36.1282 15.6155C35.8002 14.7736 35.3628 14.0595 34.6508 13.348C33.9388 12.636 33.2268 12.1987 32.3841 11.872C31.5681 11.5555 30.6375 11.3397 29.2748 11.2773C27.9094 11.2152 27.4748 11.2 23.9974 11.2H24.0014ZM23.5745 13.5066H23.5748L24.0014 13.5067C27.419 13.5067 27.8241 13.519 29.1737 13.5803C30.4217 13.6374 31.0991 13.8459 31.5503 14.0211C32.1476 14.2531 32.5735 14.5304 33.0212 14.9784C33.4692 15.4264 33.7466 15.8531 33.9791 16.4505C34.1543 16.9011 34.3631 17.5785 34.4199 18.8265C34.4812 20.1758 34.4946 20.5812 34.4946 23.9972C34.4946 27.4132 34.4812 27.8186 34.4199 29.1679C34.3628 30.4159 34.1543 31.0933 33.9791 31.5439C33.7471 32.1413 33.4692 32.5666 33.0212 33.0144C32.5732 33.4624 32.1479 33.7397 31.5503 33.9717C31.0996 34.1477 30.4217 34.3557 29.1737 34.4128C27.8244 34.4741 27.419 34.4874 24.0014 34.4874C20.5835 34.4874 20.1784 34.4741 18.8291 34.4128C17.5811 34.3552 16.9037 34.1466 16.4523 33.9714C15.8549 33.7394 15.4282 33.4621 14.9802 33.0141C14.5322 32.5661 14.2549 32.1405 14.0224 31.5429C13.8472 31.0922 13.6384 30.4149 13.5816 29.1669C13.5202 27.8175 13.508 27.4122 13.508 23.994C13.508 20.5758 13.5202 20.1726 13.5816 18.8233C13.6386 17.5753 13.8472 16.8979 14.0224 16.4467C14.2544 15.8494 14.5322 15.4227 14.9802 14.9747C15.4282 14.5267 15.8549 14.2494 16.4523 14.0168C16.9035 13.8408 17.5811 13.6328 18.8291 13.5755C20.0099 13.5222 20.4675 13.5062 22.8531 13.5035V13.5067C23.076 13.5063 23.3158 13.5064 23.5745 13.5066ZM29.298 17.1675C29.298 16.3193 29.986 15.632 30.834 15.632V15.6315C31.682 15.6315 32.37 16.3195 32.37 17.1675C32.37 18.0155 31.682 18.7035 30.834 18.7035C29.986 18.7035 29.298 18.0155 29.298 17.1675ZM24.0011 17.4267C20.3711 17.4269 17.428 20.37 17.428 24.0001C17.428 27.6303 20.3712 30.5722 24.0014 30.5722C27.6316 30.5722 30.5737 27.6303 30.5737 24.0001C30.5737 20.37 27.6313 17.4267 24.0011 17.4267ZM28.2681 24.0001C28.2681 21.6436 26.3577 19.7334 24.0014 19.7334C21.6448 19.7334 19.7347 21.6436 19.7347 24.0001C19.7347 26.3564 21.6448 28.2668 24.0014 28.2668C26.3577 28.2668 28.2681 26.3564 28.2681 24.0001Z" fill="white" />
  </g>
</svg>