<svg width="30" height="30" viewBox="0 0 30 30" fill="none" xmlns="http://www.w3.org/2000/svg">
<g clip-path="url(#clip0)">
<path d="M0 18.5V11.5H0.5V10H1V8.5H1.5V7.5H2V6.5H2.5V6H3V5.5H3.5V4.5H3V4H2.5V3.5H2V3H1.5V2.5H1V2H0.5V0.5H1V0H4V0.5H5V1H6V1.5H8.5V1H10V0.5H11.5V0H18.5V0.5H20V1H21.5V1.5H22.5V2H23.5V2.5H24V3H24.5V3.5H25V4H25.5V4.5H26V5C26.166 4.97908 26.334 4.97908 26.5 5C26.4791 5.16601 26.4791 5.33399 26.5 5.5H27V6H27.5V6.5H28V7.5H28.5V8.5H29V10H29.5V11.5L30 11.54V18.5H29.5V20H29V21.5H28.5V22.5H28V23.5H27.5V24H27V24.5H26.5V25H26V25.5H25.5V26H25V26.5H24.5V27H24V27.5H23.5V28H22.5V28.5H21.5V29H20V29.5H18.5V30H11.5V29.5H10V29H8.5V28.5H7.5V28H6.5V27.5H6V27H5.5V26.5H5V26H4.5V25.5H4V25H3.5V24.5H3V24H2.5V23.5H2V22.5H1.5V21.5H1V20H0.5V18.5H0Z" fill="white"/>
<path d="M1.5 18V12H2V10.5H2.5V9H3V8H3.5V7H4V6.5H4.5V6H5V5.5H5.5V5H6V4.5H6.5V4H7V3.5H8V3H9V2.5H10.5V2H12V1.5H18V2H19.5V2.5H21V3H22V3.5H23V4H23.5V4.5H24V5H24.5V5.5H25V6H25.5V6.5H26V7H26.5V8H27V9H27.5V10.5H28V12H28.5V18H28V19.5H27.5V21H27V22H26.5V23H26V23.5H25.5V24H25V24.5H24.5V25H24V25.5H23.5V26H23V26.5H22V27H21V27.5H19.5V28H18V28.5H12V28H10.5V27.5H9V27H8V26.5H7V26H6.5V25.5H6V25H5.5V24.5H5V24H4.5V23.5H4V23H3.5V22H3V21H2.5V19.5H2V18H1.5Z" fill="#329E41"/>
<path d="M16.5 8V7.5H17V7H18V6.5H19V6H20.5V5.5H24.5V6H25.5V6.5H26V7H26.5V8H27V9.5H16.5V8Z" fill="#FF0307"/>
<path d="M19.5 9.5H20.5V9H22V8.5H26V9H27.5V10.5H28V12.5H19.5V9.5Z" fill="#FF9100"/>
<path d="M21 12H22.5V11.5H27.5V12H28.5V15.5H21V12Z" fill="#FFF700"/>
<path d="M22 15H23.5V14.5H26.5V15H28.5V18H28V19H22V15Z" fill="#41AF46"/>
<path d="M23 18.5H24V18H26.5V18.5H28V19.5H27.5V21H27V21.5H23V18.5Z" fill="#0068FD"/>
<path d="M23.5 21.5H24.5V21H27V22H26.5V23H26V23.5H25.5V24H23.5V21.5Z" fill="#D903CA"/>
<path d="M11.5 28V26H12V24.5H12.5V22H13V21H13.5V20H14V19H12.5V19.5H11.5V20H11V20.5H10V21H8.5V21.5H8V22H6V21H5.5V20.5H5V17.5H5.5V17H6V16.5H6.5V16H7V15.5H7.5V14.5H8V13.5H8.5V12.5H9V11.5H9.5V11H10V10.5H10.5V10H11V9.5H11.5V9H12V8.5H13V8H14.5H17V8.5H18V9H19V9.5H20V10H20.5V10.5H21V11H21.5V12H22V13H22.5V15H23V17.5H23.5V20.5H24V22H24.5V23H25V24.5H24.5V25H24V25.5H23.5V26H23V26.5H22V27H21V27.5H19.5V28H18V28.5H12V28H11.5Z" fill="#E8E8E8"/>
<path d="M6 21H6.5V20.5H7H8H9.5V20H10.5V19.5H11V19H11.5V18.5H15V18H15.5V17.5H16V17H16.5V15.5H17.5V17H17V17.5H16.5V18H16V18.5H15.5V19H12.5V19.5H11.5V20H11V20.5H10V21H8.5V21.5H8V22H6V21Z" fill="#333E34"/>
<path d="M13 6H13.5V7H14V7.5H14.5V8H17V8.5H18V9H19V9.5H20V10H20.5V10.5H21V11H21.5V12H22V13H22.5V15H23V17.5H23.5V20.5H24V22H24.5V23H25V24.5H24.5V25H24V24.5H23.5V24H23V23.5H22.5V22H22V20H21.5V18H21V16.47L20.5 16.5V13H20V11.5H19.5V11H19V10.5H18.5V10H18V9.5H17.5V9H16.5V8.5H15V9H14.5V9.5H13.5V7.5H12.5V5.5H13V6Z" fill="white"/>
<path d="M12.5 6H13V7H13.5V9H13V8H12.5V6Z" fill="#C1C1C1"/>
<path d="M11.5 9.5V10.5H10.5V10H11V9.5H11.5Z" fill="#C1C1C1"/>
<path d="M10.5 11.5H11.5V12H9.5V13H9V13.5H8.5V12.5H9V11.5H9.5V11H10V10.5H10.5V11.5Z" fill="#C1C1C1"/>
<path d="M8.5 13.5H8V14.5H8.5V13.5Z" fill="#C1C1C1"/>
<path d="M8.5 15.5V16.5H7V17H6.5V17.5H5.5V17H6V16.5H6.5V16H7V15.5H7.5V14.5H8V15.5H8.5Z" fill="#C1C1C1"/>
<path d="M5 17.5V20.5H5.5V20H6V19.5H6.5V18.5H5.5V17.5H5Z" fill="#C1C1C1"/>
<path d="M6.5 20.5H5.5V21H6.5V20.5Z" fill="#C1C1C1"/>
<path d="M8 21.5V21H8.5V20.5H9V19.5H8V20H7V21H6.5V21.5H8Z" fill="#C1C1C1"/>
<path d="M10 20H9.5V20.5H10V20Z" fill="#C1C1C1"/>
<path d="M11 19.5H11.5V19H12.5V18.5H13.5V18H13V17.5H12V17H11.5V16.5H10.5V17H11V17.5H11.5V18.5H10.5V19H10V20H11V19.5Z" fill="#C1C1C1"/>
<path d="M11 14.5H10.5V15H11V14.5Z" fill="#C1C1C1"/>
<path d="M11.5 14H11V14.5H11.5V14Z" fill="#C1C1C1"/>
<path d="M12 13.5H11.5V14H12V13.5Z" fill="#C1C1C1"/>
<path d="M10 14.5V14H10.5V13.5H9.5V14.5H10Z" fill="#C1C1C1"/>
<path d="M5 19H6V19.5H5.5V20H5V19Z" fill="#333E34"/>
<path d="M11 13V13.5H10V12.5H11.5V13H11Z" fill="#333E34"/>
<path d="M10.5 9V8H9.5V7.5H9V7H8.5V6.5H8V6H7.5V5.5H7V5H6.5V4.5H6V3.5H5.5V3H5V2.5H4V2H3V1.5H2V2H2.5V2.5H3.5V3H4V3.5H4.5V4H5V4.5H5.5V5H6V5.5H6.5V6.5H7V7H7.5V7.5H8V8H8.5V8.5H9V9H10.5Z" fill="#6E1A15"/>
<path d="M11 8.5V7.5H10.5V7H9.5V6C9.16699 6.02085 8.83301 6.02085 8.5 6C8.51043 5.8335 8.51043 5.6665 8.5 5.5H8V4.5H6.5V3.5H6V3H5.5V2.5H5V2H3.5V2.5H4.5V3H5V3.5H5.5V4.5H6V5H6.5V6H7V6.5H7.5V7H8V7.5H8.5V8H9V8.5H11Z" fill="#FF0307"/>
<path d="M3.5 1.5H2.5V2H3.5V1.5Z" fill="#FF0307"/>
<path d="M2.5 1H1.5V1.5H2.5V1Z" fill="#FF0307"/>
<path d="M3 1H2.5V1.5H3V1Z" fill="#FF5240"/>
<path d="M4.5 1.5H3.5V2H4.5V1.5Z" fill="#FF5240"/>
<path d="M5.5 2H5V2.5H5.5V2Z" fill="#FF5240"/>
<path d="M6 2.5H5.5V3H6V2.5Z" fill="#FF5240"/>
<path d="M6.5 3H6V3.5H6.5V3Z" fill="#FF5240"/>
<path d="M6 4H6.5V3.5H7.5V4H8V4.5H8.5V5H9V5.5H10V6H10.5V6.5H11V7H11.5V8H10V7.5H8.5V7H9V6.5H8.5V6H7V5.5H7.5V4.5H6.5V5H6V4Z" fill="#FF5240"/>
<path d="M10 6.5H10.5V7H11V8H10V7.5H9.5V7H10V6.5Z" fill="#F0D6C3"/>
<path d="M11 8H11.5V9H12V9.5H11V8Z" fill="#6EC872"/>
<path d="M10.5 8.5H11V9H11.5V9.5H11V9H10.5V8.5Z" fill="#266826"/>
<path d="M11.5 28V26H12V24.5H12.5V22H13V21H13.5V20H14V19H15.5V18.5H16V18H16.5V17.5H17V17H17.5V15.5H17V13.5H16.5V12.5H17V13H17.5V13.5H18V14.5H18.5V17.5H18V18.5H17.5V19.5H17V20H16.5V20.5H16V21H15.5V21.5H15V22H14.5V23H14V24H13.5V25.5H13V27H12.5V28.5H12V28H11.5Z" fill="#C1C1C1"/>
<path d="M14 28.5H15.5V26H16V24H16.5V22.5H16V23.5H15.5V24.5H15V26H14.5V27.5H14V28.5Z" fill="#C1C1C1"/>
<path d="M16 13H16.5V13.5H17V17H16.5V17.5H16V18H15.5V18.5H13.5V18H13V17.5H14.5V17H15V16.5H15.5V15H16V13Z" fill="white"/>
<path d="M20.5 18.5H21V20.5H21.5V22H21V20.5H20.5V18.5Z" fill="white"/>
<path d="M21.5 22.5H21V23H21.5V22.5Z" fill="white"/>
</g>
<defs>
<clipPath id="clip0">
<rect width="30" height="30" fill="white"/>
</clipPath>
</defs>
</svg>
