<svg width="21" height="21" viewBox="0 0 21 21" fill="none" xmlns="http://www.w3.org/2000/svg">
  <path d="M2 10C1.17157 10 0.5 10.6716 0.5 11.5C0.5 12.3284 1.17157 13 2 13V10ZM19 11.5L20.0447 12.5764C20.3358 12.2939 20.5 11.9056 20.5 11.5C20.5 11.0944 20.3358 10.7061 20.0447 10.4236L19 11.5ZM14.378 4.92363C13.7836 4.34665 12.8339 4.36082 12.257 4.95529C11.68 5.54975 11.6942 6.49939 12.2886 7.07637L14.378 4.92363ZM12.2886 15.9236C11.6942 16.5006 11.68 17.4502 12.257 18.0447C12.8339 18.6392 13.7836 18.6533 14.378 18.0764L12.2886 15.9236ZM2 13H19V10H2V13ZM20.0447 10.4236L14.378 4.92363L12.2886 7.07637L17.9553 12.5764L20.0447 10.4236ZM17.9553 10.4236L12.2886 15.9236L14.378 18.0764L20.0447 12.5764L17.9553 10.4236Z" fill="currentColor" />
</svg>